# xmcd
#
# Track frame offsets: 
#        150
#        13100
#        23879
#        40919
#        59130
#        83389
#        96362
#        107276
#        119503
#        130140
#        144453
#
# Disc length: 2100 seconds
#
# Revision: 0
# Processed by: cddbd v1.5.2PL0 Copyright (c) Steve Scherf et al.
# Submitted via: ExactAudioCopy v0.95b4
#
DISCID=8e08320b
DTITLE=The Sadies - Northern Passages
DYEAR=2017
DGENRE=Folk/Rock
TTITLE0=Riverview Fog
TTITLE1=Another Season Again
TTITLE2=There Are No Words
TTITLE3=It's Easy (Like Walkin)
TTITLE4=The Elements Song
TTITLE5=Through Strange Eyes
TTITLE6=God Bless The Infidels
TTITLE7=The Good Years
TTITLE8=As Above,So Below
TTITLE9=Questions I Never Asked
TTITLE10=The Noise Museum
EXTD=
EXTT0=
EXTT1=
EXTT2=
EXTT3=
EXTT4=
EXTT5=
EXTT6=
EXTT7=
EXTT8=
EXTT9=
EXTT10=
PLAYORDER=
